<svg id="Layer_1" data-name="Layer 1" xmlns="http://www.w3.org/2000/svg" xmlns:xlink="http://www.w3.org/1999/xlink" viewBox="0 0 123.9 47.2"><defs><style>.cls-1{fill:#d7d7d7;}.cls-2{fill:url(#linear-gradient);}</style><linearGradient id="linear-gradient" x1="13.52" y1="1136.63" x2="46.83" y2="1169.93" gradientTransform="translate(0 -1138.2)" gradientUnits="userSpaceOnUse"><stop offset="0" stop-color="#d42329"/><stop offset="0.02" stop-color="#d83927"/><stop offset="0.05" stop-color="#de5424"/><stop offset="0.08" stop-color="#e26a22"/><stop offset="0.11" stop-color="#e67b21"/><stop offset="0.16" stop-color="#e88620"/><stop offset="0.23" stop-color="#ea8d1f"/><stop offset="0.4" stop-color="#ea8f1f"/><stop offset="1" stop-color="#fce217"/></linearGradient></defs><title>oxidocs</title><path id="y" class="cls-1" d="M123.7,7.7h0l-1.2-1.2h0a2,2,0,0,0-2.8-.1h-0.1l-7,7-7-7.1h0a2,2,0,0,0-2.8-.1h-0.1l-1.2,1.2h0a0.4,0.4,0,0,0,0,.6h0l1.2,1.2h0l7.9,7.9v8.2h0a2,2,0,0,0,2,2h1.6a0.4,0.4,0,0,0,.4-0.4h0V24.4h0v-7l0.9-.9h0l6.3-6.3h0l1.9-1.9h0a0.4,0.4,0,0,0,0-.6h0"/><path id="a" class="cls-1" d="M100.6,16.6V16.3a10.5,10.5,0,1,0-4.1,8.3v0.7a2,2,0,0,0,2,2h1.6a0.4,0.4,0,0,0,.4-0.4h0V24.5h0V16.6h0ZM90.1,23.2A6.9,6.9,0,1,1,97,16.3h0a6.9,6.9,0,0,1-6.9,6.9h0"/><path id="p" class="cls-1" d="M66.2,5.8A10.5,10.5,0,0,0,55.7,16.3h0V33a2,2,0,0,0,2,2h1.6a0.4,0.4,0,0,0,.4-0.4h0v-10A10.5,10.5,0,0,0,72.6,8a10.8,10.8,0,0,0-6.4-2.2m0,17.4a6.9,6.9,0,1,1,6.9-6.9,6.9,6.9,0,0,1-6.9,6.9h0"/><path id="oxi" class="cls-2" d="M3.6,16.3a6.9,6.9,0,1,1,6.9,6.9h0a6.9,6.9,0,0,1-6.9-6.9h0M0,16.3A10.5,10.5,0,1,0,10.5,5.8h0A10.5,10.5,0,0,0,0,16.3H0M23.6,6.6h0l-1,1h0a0.4,0.4,0,0,0,0,.6h0l1.7,1.9h0L40.7,26.4h0a2,2,0,0,0,2.8-.1h0l1.2-1.2h0a0.4,0.4,0,0,0,0-.6h0l-1.9-1.9h0L26.5,6.4h0a2,2,0,0,0-2.8-.1H23.6m17.8-.7h0l-1,1h0l-5.8,5.8,2.9,2.9,5.7-5.7h0a2,2,0,0,0,.1-2.8H43.2L42,5.8h0a0.5,0.5,0,0,0-.6-0.1h0M24.2,22.9h0a2,2,0,0,0,.1,2.8h0l1.2,1.2h0a0.4,0.4,0,0,0,.6,0h0l1.9-2h0l4.7-4.7-2.9-2.9ZM48,2a2,2,0,1,0,2-2h0a2,2,0,0,0-2,2h0m1.9,3.8H48.3a0.4,0.4,0,0,0-.4.4h0V7.7h0V24.6h0a2,2,0,0,0,2,2h1.8a0.4,0.4,0,0,0,.4-0.4h0V7.7h0A1.9,1.9,0,0,0,50,5.8H49.9"/><path class="cls-1" d="M14.3,47H12.9V45.9h0a3.3,3.3,0,0,1-2.7,1.3,3.8,3.8,0,0,1-3.9-4,3.8,3.8,0,0,1,3.9-4,3.2,3.2,0,0,1,2.7,1.3h0V34.8h1.5V47Zm-1.5-3.8a2.5,2.5,0,0,0-2.5-2.7,2.7,2.7,0,0,0,0,5.3A2.5,2.5,0,0,0,12.9,43.1Z"/><path class="cls-1" d="M20.2,39.1a4,4,0,1,1-4.1,4A4,4,0,0,1,20.2,39.1Zm0,6.7a2.7,2.7,0,1,0-2.5-2.7A2.5,2.5,0,0,0,20.2,45.8Z"/><path class="cls-1" d="M31.6,41.3a2.6,2.6,0,1,0-1.8,4.5,2.3,2.3,0,0,0,1.9-.9l1,1a3.8,3.8,0,0,1-2.9,1.2,4,4,0,0,1,0-8,3.9,3.9,0,0,1,2.9,1.2Z"/><path class="cls-1" d="M40.7,47H39.2V45.8h0a2.7,2.7,0,0,1-2.5,1.4,2.6,2.6,0,0,1-2.8-2.9V39.3h1.5v4.5a1.7,1.7,0,0,0,1.7,2c1.2,0,2.1-.8,2.1-2.6V39.3h1.5V47Z"/><path class="cls-1" d="M42.9,39.3h1.4v1.2h0a2.7,2.7,0,0,1,2.5-1.4,2.5,2.5,0,0,1,2.4,1.4,2.8,2.8,0,0,1,2.4-1.4c2.4,0,2.9,1.7,2.9,3.4V47H53V42.7c0-1.2-.2-2.2-1.6-2.2s-2,1-2,2.3V47H47.9V43c0-1.5-.2-2.5-1.6-2.5s-2,.8-2,2.5v4H42.9V39.3Z"/><path class="cls-1" d="M57.7,43.7a2.4,2.4,0,0,0,2.6,2.2,2.6,2.6,0,0,0,2.1-1.1l1.1,0.8a4,4,0,0,1-3.4,1.6,3.8,3.8,0,0,1-3.9-4,3.9,3.9,0,0,1,4-4c2.7,0,3.7,2.1,3.7,4v0.5H57.7Zm4.6-1.2a2.1,2.1,0,0,0-2.2-2.2,2.4,2.4,0,0,0-2.4,2.2h4.6Z"/><path class="cls-1" d="M65.6,39.3h1.5v1.2h0a2.7,2.7,0,0,1,2.5-1.4A2.6,2.6,0,0,1,72.4,42V47H71V42.4a1.7,1.7,0,0,0-1.7-2c-1.2,0-2.1.8-2.1,2.6V47H65.6V39.3Z"/><path class="cls-1" d="M78.7,40.6H76.6V44c0,0.9,0,1.8,1.1,1.8a2.1,2.1,0,0,0,1-.2v1.3a3.3,3.3,0,0,1-1.3.3c-2.2,0-2.3-1.4-2.3-2.6v-4H73.5V39.3h1.7V37.2h1.5v2.1h2.1v1.3Z"/><path class="cls-1" d="M80.6,40.3a4.5,4.5,0,0,1,3-1.1c2.3,0,3.2,1.2,3.2,2.6v3.9a11.8,11.8,0,0,0,.1,1.4H85.6q0-.6,0-1.2h0a2.9,2.9,0,0,1-2.7,1.4,2.4,2.4,0,0,1-2.6-2.3c0-2,1.9-2.6,4.2-2.6h1.1V41.9a1.6,1.6,0,0,0-1.8-1.6,3.2,3.2,0,0,0-2.2.9Zm4.1,3c-1.4,0-3.1.2-3.1,1.5S82.3,46,83.3,46a2.1,2.1,0,0,0,2.2-2.2V43.3H84.7Z"/><path class="cls-1" d="M93.1,40.6H91V44c0,0.9,0,1.8,1.1,1.8a2.1,2.1,0,0,0,1-.2v1.3a3.3,3.3,0,0,1-1.3.3c-2.2,0-2.3-1.4-2.3-2.6v-4H87.8V39.3h1.7V37.2H91v2.1h2.1v1.3Z"/><path class="cls-1" d="M95.8,35.5a1.1,1.1,0,1,1-1.1,1.1A1.1,1.1,0,0,1,95.8,35.5ZM95,39.3h1.5V47H95V39.3Z"/><path class="cls-1" d="M102.5,39.1a4,4,0,1,1-4.1,4A4,4,0,0,1,102.5,39.1Zm0,6.7a2.7,2.7,0,1,0-2.5-2.7A2.5,2.5,0,0,0,102.5,45.8Z"/><path class="cls-1" d="M108.4,39.3h1.5v1.2h0a2.7,2.7,0,0,1,2.5-1.4,2.6,2.6,0,0,1,2.8,2.9V47h-1.5V42.4a1.7,1.7,0,0,0-1.7-2c-1.2,0-2.1.8-2.1,2.6V47h-1.5V39.3Z"/></svg>