<?xml version="1.0" encoding="utf-8"?>
<!-- Generator: Adobe Illustrator 19.2.1, SVG Export Plug-In . SVG Version: 6.00 Build 0)  -->
<svg version="1.1" id="Layer_1" xmlns="http://www.w3.org/2000/svg" xmlns:xlink="http://www.w3.org/1999/xlink" x="0px" y="0px"
	 viewBox="0 0 84.9 24" style="enable-background:new 0 0 84.9 24;" xml:space="preserve">
<style type="text/css">
	.st0{fill:#D7D7D7;}
	.st1{fill:url(#oxi_1_);}
</style>
<title>oxipay-shopify</title>
<path id="y" class="st0" d="M84.8,5.3L84.8,5.3L84,4.5l0,0c-0.5-0.6-1.4-0.6-2,0c0,0,0,0,0,0l0,0l-4.8,4.8l-4.8-4.9l0,0
	c-0.5-0.6-1.4-0.6-2,0c0,0,0,0,0,0l0,0l-0.8,0.8l0,0c-0.1,0.1-0.1,0.3,0,0.4l0,0l0.8,0.8l0,0l5.4,5.4v5.6l0,0c0,0.8,0.6,1.4,1.4,1.4
	l0,0h1.1c0.2,0,0.3-0.1,0.3-0.3v0l0,0v-1.8l0,0v-4.8l0.6-0.6l0,0L83.5,7l0,0l1.3-1.3l0,0C84.9,5.6,84.9,5.4,84.8,5.3"/>
<path id="a" class="st0" d="M69,11.4v-0.2c0-4-3.2-7.2-7.2-7.2c-4,0-7.2,3.2-7.2,7.2c0,4,3.2,7.2,7.2,7.2c1.6,0,3.1-0.5,4.4-1.5v0.5
	c0,0.8,0.6,1.4,1.4,1.4l0,0h1.1c0.2,0,0.3-0.1,0.3-0.3v0l0,0v-1.7l0,0V11.4L69,11.4z M61.8,15.9c-2.6,0-4.7-2.1-4.7-4.7
	c0-2.6,2.1-4.7,4.7-4.7s4.7,2.1,4.7,4.7l0,0C66.5,13.8,64.4,15.9,61.8,15.9L61.8,15.9"/>
<path id="p" class="st0" d="M45.4,4c-4,0-7.2,3.2-7.2,7.2l0,0l0,0v11.4c0,0.8,0.6,1.4,1.4,1.4h1.1c0.2,0,0.3-0.1,0.3-0.3l0,0v-6.8
	c3.1,2.4,7.7,1.8,10.1-1.3c2.4-3.1,1.8-7.7-1.3-10.1C48.5,4.5,47,4,45.4,4 M45.4,15.9c-2.6,0-4.7-2.1-4.7-4.7c0-2.6,2.1-4.7,4.7-4.7
	c2.6,0,4.7,2.1,4.7,4.7S48,15.9,45.4,15.9L45.4,15.9L45.4,15.9"/>
<linearGradient id="oxi_1_" gradientUnits="userSpaceOnUse" x1="9.2832" y1="573.1345" x2="32.1232" y2="595.9744" gradientTransform="matrix(1 0 0 1 0 -574.2)">
	<stop  offset="0" style="stop-color:#D42329"/>
	<stop  offset="1.811961e-002" style="stop-color:#D83927"/>
	<stop  offset="4.576266e-002" style="stop-color:#DE5424"/>
	<stop  offset="7.757501e-002" style="stop-color:#E26A22"/>
	<stop  offset="0.1147" style="stop-color:#E67B21"/>
	<stop  offset="0.1606" style="stop-color:#E88620"/>
	<stop  offset="0.2251" style="stop-color:#EA8D1F"/>
	<stop  offset="0.4039" style="stop-color:#EA8F1F"/>
	<stop  offset="1" style="stop-color:#FCE217"/>
</linearGradient>
<path id="oxi" class="st1" d="M2.5,11.2c0-2.6,2.1-4.7,4.7-4.7s4.7,2.1,4.7,4.7s-2.1,4.7-4.7,4.7l0,0l0,0
	C4.6,15.9,2.5,13.8,2.5,11.2L2.5,11.2 M0,11.2c0,4,3.2,7.2,7.2,7.2s7.2-3.2,7.2-7.2S11.2,4,7.2,4l0,0C3.2,4,0,7.2,0,11.2
	C0,11.2,0,11.2,0,11.2 M16.2,4.5L16.2,4.5l-0.7,0.7l0,0c-0.1,0.1-0.1,0.3,0,0.4l0,0l1.2,1.3l0,0l11.2,11.2l0,0
	c0.6,0.5,1.4,0.4,1.9-0.1l0,0l0.8-0.8l0,0c0.1-0.1,0.1-0.3,0-0.4l0,0l-1.3-1.3l0,0L18.2,4.4l0,0c-0.5-0.6-1.4-0.6-2,0
	C16.2,4.4,16.2,4.4,16.2,4.5L16.2,4.5 M28.4,3.9L28.4,3.9l-0.7,0.7l0,0l-4,4l2,2l3.9-3.9l0,0c0.6-0.5,0.6-1.4,0-2c0,0,0,0,0,0l0,0
	L28.8,4l0,0C28.7,3.9,28.5,3.9,28.4,3.9L28.4,3.9 M16.6,15.7L16.6,15.7c-0.5,0.6-0.4,1.4,0.1,1.9l0,0l0.8,0.8l0,0
	c0.1,0.1,0.3,0.1,0.4,0l0,0l1.3-1.3l0,0l3.2-3.2l-2-2L16.6,15.7z M32.9,1.4c0,0.8,0.6,1.4,1.4,1.4c0.8,0,1.4-0.6,1.4-1.4
	S35.1,0,34.3,0c0,0,0,0,0,0C33.5,0,32.9,0.6,32.9,1.4C32.9,1.4,32.9,1.4,32.9,1.4 M34.2,4h-1.1c-0.2,0-0.3,0.1-0.3,0.3l0,0v1l0,0
	v11.6l0,0c0,0.8,0.6,1.4,1.4,1.4l0,0h1.2c0.2,0,0.3-0.1,0.3-0.3l0,0V5.3l0,0C35.6,4.5,35,3.9,34.2,4C34.2,4,34.2,4,34.2,4L34.2,4"/>
</svg>
